PathFileType	4	(X/Y/Z)	C:/Users/opensim2020/Desktop/walking_exp_matlab/subject01_walking15_straight_01.trc																																																																																																																															
DataRate	CameraRate	NumFrames	NumMarkers	Units	OrigDataRate	OrigDataStartFrame	OrigNumFrames																																																																																																																											
100	100	8	43	mm	100	683	125																																																																																																																											
Frame#	Time	LFHD			RFHD			LBHD			RBHD			C7			T10			CLAV			STRN			RBAK			LSHO			LUPA			LELB			LFRM			LWRA			LWRB			LFIN			RSHO			RUPA			RELB			RFRM			RWRA			RWRB			RFIN			LASI			RASI			LPSI			RPSI			LTHI			LKNE			LTIB			LANK			LHEE			LTOE			RTHI			RKNE			RTIB			RANK			RHEE			RTOE			*39			*40			*41			*42		
		X1	Y1	Z1	X2	Y2	Z2	X3	Y3	Z3	X4	Y4	Z4	X5	Y5	Z5	X6	Y6	Z6	X7	Y7	Z7	X8	Y8	Z8	X9	Y9	Z9	X10	Y10	Z10	X11	Y11	Z11	X12	Y12	Z12	X13	Y13	Z13	X14	Y14	Z14	X15	Y15	Z15	X16	Y16	Z16	X17	Y17	Z17	X18	Y18	Z18	X19	Y19	Z19	X20	Y20	Z20	X21	Y21	Z21	X22	Y22	Z22	X23	Y23	Z23	X24	Y24	Z24	X25	Y25	Z25	X26	Y26	Z26	X27	Y27	Z27	X28	Y28	Z28	X29	Y29	Z29	X30	Y30	Z30	X31	Y31	Z31	X32	Y32	Z32	X33	Y33	Z33	X34	Y34	Z34	X35	Y35	Z35	X36	Y36	Z36	X37	Y37	Z37	X38	Y38	Z38	X39	Y39	Z39	X40	Y40	Z40	X41	Y41	Z41	X42	Y42	Z42	X43	Y43	Z43
																																																																																																																																		
16	0.15	-733.70367	1646.45154	1352.46411	-711.71368	1654.68054	1463.90308	-846.34021	1597.5708	1370.57764	-825.87067	1604.80823	1488.88501	-870.59094	1412.73206	1397.09326	-934.37512	1124.13062	1408.53735	-729.48181	1337.03687	1417.97998	-702.37347	1177.50769	1418.06677	-950.11572	1226.74084	1464.91956	-767.02069	1377.04077	1253.47839	-777.51007	1198.70923	1160.98987	-771.26672	1044.349	1150.36169	-670.22235	980.78656	1154.26453	-545.60236	952.64215	1206.28162	-574.35156	908.71741	1176.22021	-491.77161	898.37988	1181.11646	-815.3028	1379.61414	1556.2981	-933.57935	1200.57825	1638.85107	-954.7179	1079.36841	1645.67175	-969.26196	962.77002	1681.6676	-929.21472	824.49347	1678.44751	-975.63391	842.68201	1709.01514	-967.74292	756.67499	1718.27161	-771.40479	909.04468	1308.198	-764.58453	916.53351	1525.98706	-954.61304	927.20374	1370.59717	-946.77289	925.97913	1514.89661	-876.19495	579.9599	1276.57349	-922.50989	451.21561	1299.72351	-1022.27502	287.75974	1301.99731	-1105.40088	86.86972	1369.44287	-1157.88977	72.09641	1422.13074	-969.03998	27.92444	1373.14807	-731.28778	597.07385	1611.46362	-652.30328	462.63028	1589.09082	-648.79065	289.13501	1609.46753	-590.47552	83.05754	1578.3634	-617.97015	28.38513	1526.84265	-445.48557	88.25311	1584.61548	-726.59662	1687.08459	1441.71155	1973.14832	1023.60577	-3101.83618	2012.53967	1021.99646	-3140.70874	NaN	NaN	NaN
17	0.16	-722.0766	1645.38391	1355.11926	-699.5918	1653.50208	1466.37427	-834.56818	1596.66614	1373.48071	-813.60425	1603.47119	1491.62634	-858.67719	1411.38611	1399.44666	-921.75018	1122.6825	1411.51831	-717.25177	1336.09705	1419.78638	-689.77417	1176.57874	1419.44031	-937.51324	1224.94971	1467.55237	-755.34338	1376.16467	1255.42615	-765.17206	1197.9115	1162.88916	-757.88	1043.57715	1151.81128	-655.81299	981.79852	1155.74951	-530.52557	956.05139	1207.73267	-558.51636	911.7652	1177.33594	-475.63834	902.88159	1182.62341	-802.90845	1378.20117	1558.47595	-921.08948	1199.00378	1641.03003	-942.22968	1077.91528	1648.01086	-957.22717	961.42957	1684.03503	-917.87012	823.25909	1681.02429	-964.14343	841.43109	1711.26917	-956.60876	755.44098	1720.76001	-759.03394	908.01349	1309.58691	-750.4408	914.927	1527.36292	-941.87244	926.18933	1373.99438	-932.76202	924.59637	1518.3147	-866.81934	580.00317	1277.40186	-914.55023	451.63281	1300.05115	-1017.35126	290.07153	1302.15991	-1103.82288	90.05067	1368.42676	-1156.50793	76.40483	1420.73279	-968.83899	27.85895	1372.76367	-719.99384	594.73645	1614.22168	-639.33655	461.67993	1589.6543	-631.46173	288.25104	1609.5437	-568.87067	83.36102	1577.78955	-595.2381	28.8676	1526.14612	-423.75867	91.6187	1584.37219	-714.52228	1685.94836	1444.37793	1973.03357	1023.86224	-3102.08203	2012.52014	1022.19104	-3140.71362	NaN	NaN	NaN
18	0.17	-710.13495	1644.55933	1357.79553	-687.33661	1652.44751	1468.92273	-822.68695	1595.8844	1376.49255	-801.25653	1602.40161	1494.56787	-846.67352	1410.28015	1402.01892	-908.90918	1121.22949	1414.47461	-704.88464	1335.27271	1421.74988	-676.98615	1175.85522	1420.97656	-924.83612	1223.29773	1470.30115	-743.68054	1375.41931	1257.5697	-753.01764	1197.26025	1164.89697	-744.47589	1043.16418	1153.43884	-641.18268	982.98187	1157.23914	-515.97803	958.96674	1209.0697	-543.11414	914.36151	1178.63953	-459.89551	906.60162	1184.11682	-790.29547	1376.90869	1560.8689	-908.3443	1197.45105	1643.30359	-929.47821	1076.37097	1650.4071	-944.8584	959.99146	1686.42371	-905.90277	821.71423	1683.49292	-952.15118	839.99597	1713.72656	-944.90619	754.13171	1723.25586	-746.36206	907.07776	1311.05957	-736.19983	913.37616	1528.85474	-928.90381	925.18414	1377.43298	-918.6131	923.27142	1521.8009	-856.78693	580.02924	1278.0929	-905.7558	451.97833	1300.41528	-1011.36877	292.20825	1301.89832	-1101.64136	93.35842	1367.22607	-1154.91382	81.447	1419.27148	-968.797	27.8921	1372.92188	-707.25226	593.18921	1616.28906	-626.1889	460.5658	1590.20544	-615.47113	287.28452	1609.45093	-550.3526	83.21834	1576.91125	-575.94269	28.40746	1524.86646	-405.28925	93.20298	1583.46167	-702.34088	1684.93787	1447.10583	1973.13354	1023.4881	-3101.88672	2012.44861	1022.10718	-3140.74976	NaN	NaN	NaN
19	0.18	-698.27246	1643.90723	1360.44238	-675.02844	1651.52209	1471.5094	-810.79401	1595.1936	1379.47241	-788.82355	1601.44629	1497.46448	-834.58136	1409.20557	1404.81494	-895.83215	1119.90833	1417.39185	-692.39331	1334.55627	1423.80054	-664.01575	1175.25098	1422.672	-912.00049	1221.80115	1473.15076	-732.66473	1374.75244	1259.85083	-741.0097	1196.74292	1167.07007	-730.83459	1043.11597	1155.39624	-627.2005	983.84814	1158.72583	-501.745	961.29291	1210.30212	-528.33728	916.53992	1179.68567	-444.96106	909.7926	1185.15063	-777.56909	1375.66028	1563.4364	-895.40875	1195.93787	1645.73706	-916.39709	1074.86487	1652.92993	-932.01501	958.56445	1688.90857	-893.31592	820.03326	1685.84546	-939.73053	838.57422	1716.02356	-932.58075	752.72699	1725.66772	-733.22412	906.28088	1312.56165	-721.78088	911.8786	1530.35278	-915.5481	924.19525	1380.9751	-904.2016	921.87598	1525.23059	-846.02393	580.07794	1278.72864	-896.22375	452.29089	1300.65063	-1004.80176	294.57281	1301.67529	-1099.38	97.2079	1365.73645	-1153.1842	87.42464	1417.45398	-968.48553	27.85222	1372.81934	-693.03735	592.38715	1617.34021	-612.77417	459.39456	1590.90967	-601.08984	286.06302	1608.98267	-534.94214	82.26181	1575.59827	-560.16486	27.30684	1523.28723	-389.71799	92.84835	1581.69788	-690.05225	1684.08545	1449.89246	1972.98181	1023.90155	-3102.01318	2012.4729	1021.92322	-3140.69556	NaN	NaN	NaN
20	0.19	-686.28406	1643.31067	1363.18567	-662.55981	1650.72974	1474.14294	-798.75378	1594.66199	1382.57568	-776.34076	1600.70386	1500.47327	-822.36041	1408.27454	1407.72119	-882.48969	1118.62061	1420.28918	-679.77899	1333.93738	1426.00647	-651.01062	1174.76575	1424.41821	-899.02057	1220.52246	1476.10986	-721.03131	1374.50952	1262.14111	-729.21014	1196.44446	1169.27136	-718.15253	1042.6582	1156.81494	-613.80292	984.58588	1159.95105	-488.01801	963.10504	1211.46924	-514.18872	918.28345	1180.61743	-431.01563	912.45825	1185.83179	-764.6051	1374.47437	1566.10095	-882.17395	1194.44336	1648.30078	-902.87543	1073.50073	1655.57666	-918.74274	957.12054	1691.44006	-880.26788	818.47998	1688.25598	-926.89001	837.22565	1718.49585	-919.71344	751.45135	1728.23938	-719.79236	905.49664	1314.23767	-707.20367	910.74609	1532.06738	-901.80255	923.18079	1384.37915	-889.8515	920.64301	1528.50244	-834.59747	580.16058	1279.5365	-885.95355	452.72992	1300.82751	-997.51385	297.11047	1301.30811	-1096.70886	101.44942	1363.94531	-1150.72424	93.26581	1415.12354	-968.23187	27.8047	1372.67175	-677.23877	592.31189	1617.97034	-599.02527	458.12723	1591.67603	-587.85901	284.75381	1608.29065	-522.44659	80.77782	1573.94482	-547.97815	26.25693	1521.60083	-377.14175	90.97659	1579.54077	-677.56689	1683.53186	1452.79114	1973.15466	1023.44574	-3101.88672	2012.53284	1022.17468	-3140.73633	NaN	NaN	NaN
21	0.2	-674.14935	1642.84167	1365.91797	-650.06561	1650.14685	1476.83289	-786.54535	1594.1925	1385.67639	-763.75964	1600.16199	1503.51526	-810.12024	1407.43262	1410.78748	-868.89874	1117.51465	1423.16016	-667.03699	1333.49573	1428.36377	-637.69281	1174.48181	1426.39502	-885.92047	1219.30347	1479.12573	-709.29907	1374.41968	1264.64453	-717.54938	1196.27942	1171.60901	-705.4231	1042.68127	1158.68298	-600.72931	985.30334	1161.27185	-474.66092	964.41815	1212.59277	-500.6683	919.52814	1181.42456	-417.23267	914.04242	1186.72363	-751.55304	1373.45789	1568.89246	-868.64612	1193.03235	1650.98352	-889.12048	1071.98193	1658.26343	-904.9447	955.72791	1694.03748	-866.84613	817.26746	1690.77686	-913.21167	835.6568	1720.65149	-906.21191	750.09497	1730.62341	-705.77905	904.99072	1315.97839	-692.30927	909.96771	1533.94189	-887.64587	922.22571	1387.60547	-875.52124	919.77222	1531.54077	-822.47479	580.31964	1280.25537	-874.96509	453.16727	1300.98511	-989.63263	299.80231	1300.87732	-1093.24744	105.84498	1362.06531	-1147.66455	99.6747	1412.66553	-967.77209	27.62644	1372.48657	-660.64508	592.51746	1617.85217	-584.91791	456.74258	1592.18921	-575.84863	282.80478	1607.2655	-512.72717	78.55116	1571.73193	-539.19165	25.18113	1519.33459	-367.25098	86.91599	1576.91699	-665.23523	1682.7019	1455.40686	1973.25049	1023.48456	-3101.93652	2012.59204	1022.10675	-3140.65186	NaN	NaN	NaN
22	0.21	-662.00421	1642.40088	1368.6842	-637.47021	1649.68225	1479.54504	-774.31299	1593.96985	1388.85388	-751.10114	1599.81995	1506.58948	-797.80054	1406.73425	1414.01575	-855.00647	1116.4248	1425.98364	-654.18561	1333.23486	1430.90564	-624.28284	1174.42871	1428.57043	-872.565	1218.24133	1482.24268	-697.51373	1374.36572	1267.32593	-706.01898	1196.44263	1173.8822	-693.02313	1042.90173	1160.42163	-588.04181	985.89142	1162.62793	-461.88959	965.11444	1213.6283	-487.7511	920.42694	1182.23193	-404.51526	915.29749	1187.06177	-738.40887	1372.59241	1571.8302	-854.7843	1191.61243	1653.7699	-874.87201	1070.57263	1661.09985	-890.7627	954.36163	1696.64087	-852.71265	815.87726	1693.12415	-899.00641	834.19196	1723.26001	-892.0097	748.66949	1732.98694	-691.32355	904.48419	1317.97473	-677.22748	909.56702	1535.96777	-873.04022	921.42383	1390.54517	-860.73761	918.94659	1534.11096	-809.77502	580.51044	1281.06104	-863.65753	453.83667	1301.12305	-981.18298	302.63525	1300.30591	-1089.53455	110.83629	1359.95117	-1144.05505	106.61914	1410.15002	-967.43604	27.56502	1372.27173	-643.53589	592.66229	1617.31897	-570.9248	455.15735	1592.55444	-564.84741	280.52933	1605.99097	-505.47098	75.90143	1569.18457	-534.00659	25.24504	1517.0946	-359.91638	81.68435	1574.40051	-652.76019	1682.27332	1458.08264	1973.18835	1023.48053	-3101.94507	2012.48999	1022.03857	-3140.68604	NaN	NaN	NaN
23	0.22	-649.64368	1642.1416	1371.49243	-624.73578	1649.3501	1482.29968	-762.00507	1593.82373	1392.06165	-738.41278	1599.70422	1509.71179	-785.44568	1406.01135	1417.25134	-840.85052	1115.34741	1428.75549	-641.34369	1333.18616	1433.53674	-610.51788	1174.63281	1430.98328	-859.04468	1217.11389	1485.43994	-685.53369	1374.3396	1270.19617	-694.48804	1196.56812	1176.31848	-680.67108	1043.3114	1162.48816	-575.73071	986.35504	1163.98682	-449.49777	965.31024	1214.62097	-475.5043	920.81287	1182.92896	-392.32364	915.64148	1187.52246	-725.25226	1371.89331	1574.87451	-840.6795	1190.31189	1656.8175	-860.2655	1069.18848	1663.89624	-875.94946	952.987	1699.29565	-837.90747	814.35931	1695.37915	-884.18005	832.93933	1725.74133	-877.25763	747.33527	1735.39355	-676.31915	904.07178	1319.97009	-661.94714	909.54321	1538.25269	-858.03046	920.77185	1393.16895	-846.45392	918.63708	1536.69116	-796.52972	580.74097	1281.94275	-851.74542	454.63766	1301.17773	-972.07239	305.59659	1299.62512	-1085.57703	116.17966	1357.67004	-1139.74109	114.02714	1407.52954	-967.05585	27.51507	1372.07312	-626.29651	592.71576	1616.60876	-557.00836	453.37784	1592.98938	-554.62756	278.056	1604.60938	-499.84698	73.52163	1566.80103	-531.48944	25.48178	1515.54639	-354.46182	74.46116	1571.55493	-640.01453	1681.99854	1460.90173	1973.11084	1023.54413	-3101.83398	2012.49316	1022.05627	-3140.81494	NaN	NaN	NaN
